PathFileType	4	(X/Y/Z)	c:/Users/goper/Files/vsCode/490R/osim_files/C03/C03_Static.trc
DataRate	CameraRate	NumFrames	NumMarkers	Units                	OrigDataRate	OrigDataStartFrame	OrigNumFrames
250.00	250.00	9	36	mm	250.0	962	1538
                Frame#	Time	LPSIS			LASIS			LTH1			LTH2			LTH3			LTH4			LLFE			LMFE			LSH1			LSH2			LSH3			LSH4			LLMAL			LMMAL			LCAL			LMTP5			LTOE			LMTP1			RPSIS			RASIS			RTH1			RTH2			RTH3			RTH4			RLFE			RMFE			RSH1			RSH2			RSH3			RSH4			RLMAL			RMMAL			RCAL			RMTP1			RTOE			RMTP5		
		X1	Y1	Z1	X2	Y2	Z2	X3	Y3	Z3	X4	Y4	Z4	X5	Y5	Z5	X6	Y6	Z6	X7	Y7	Z7	X8	Y8	Z8	X9	Y9	Z9	X10	Y10	Z10	X11	Y11	Z11	X12	Y12	Z12	X13	Y13	Z13	X14	Y14	Z14	X15	Y15	Z15	X16	Y16	Z16	X17	Y17	Z17	X18	Y18	Z18	X19	Y19	Z19	X20	Y20	Z20	X21	Y21	Z21	X22	Y22	Z22	X23	Y23	Z23	X24	Y24	Z24	X25	Y25	Z25	X26	Y26	Z26	X27	Y27	Z27	X28	Y28	Z28	X29	Y29	Z29	X30	Y30	Z30	X31	Y31	Z31	X32	Y32	Z32	X33	Y33	Z33	X34	Y34	Z34	X35	Y35	Z35	X36	Y36	Z36

962	3.84400	-402.24603	1039.04248	355.59158	-217.75136	971.00085	339.42288	-353.12094	640.90448	275.03564	-352.72546	578.93726	279.49283	-277.77130	636.46973	283.49048	-287.01855	575.71136	287.66064	-333.49155	487.09525	289.01825	-349.18811	478.36841	400.73065	-400.97168	308.17682	272.69626	-395.60483	262.14230	275.96793	-340.29480	312.75046	270.99808	-343.38974	264.95566	273.67590	-353.09674	99.42685	295.34818	-335.18359	108.55069	375.24875	-419.79785	63.26280	330.36749	-219.54248	51.14352	270.17166	-187.95808	67.53870	323.63049	-209.66409	54.81815	363.91708	-415.55042	1034.00574	464.62354	-249.73398	990.75922	546.30573	-388.23953	617.36395	572.21155	-390.39816	555.46631	562.43500	-329.09143	617.46204	597.77509	-320.93912	556.15747	594.51288	-326.25491	487.80539	581.88129	-328.22934	494.42563	466.73862	-421.76337	307.81027	595.80969	-418.60513	260.69495	598.34351	-362.39383	303.63245	613.98145	-368.68546	260.81174	614.53967	-375.96100	102.03088	602.18481	-354.25232	101.11674	523.51776	-441.87866	63.85910	556.94733	-234.02325	41.72440	542.25983	-210.61630	67.53765	589.07605	-270.92761	38.68713	646.43689
963	3.84800	-402.30975	1039.06079	355.57492	-217.49698	970.98309	339.33270	-353.38815	640.76337	275.07895	-352.76376	578.94708	279.44925	-277.81870	636.46460	283.44888	-287.06161	575.72162	287.61142	-333.52713	487.08499	289.00595	-349.21896	478.36484	400.70157	-401.01727	308.18567	272.70190	-395.63248	262.12030	275.95197	-340.30695	312.74533	270.97964	-343.40701	264.95450	273.67084	-353.09628	99.41870	295.34509	-335.18491	108.56296	375.23340	-419.79504	63.24775	330.36996	-219.55060	51.14304	270.17719	-187.95334	67.54134	323.65173	-209.66928	54.80483	363.91223	-415.57455	1034.00793	464.61102	-249.73117	990.74109	546.25317	-388.25381	617.35541	572.19318	-390.39474	555.46869	562.45001	-329.07721	617.48145	597.74567	-320.88968	556.16516	594.48425	-326.27115	487.82635	581.85608	-328.25781	494.41418	466.70059	-421.75970	307.80463	595.80939	-418.60529	260.70059	598.35175	-362.38440	303.62415	613.97430	-368.67133	260.82214	614.53156	-375.96320	102.01545	602.18109	-354.27570	101.12260	523.51624	-441.90234	63.87266	556.94971	-234.04289	41.71445	542.27649	-210.61560	67.55135	589.07806	-270.93179	38.69190	646.44781
964	3.85200	-402.37421	1039.08337	355.55267	-217.55640	970.98077	339.27170	-353.23642	640.90497	274.97177	-352.81436	578.92993	279.43939	-277.88766	636.49036	283.40390	-287.10556	575.72296	287.58636	-333.54608	487.11032	288.96484	-349.21927	478.38525	400.67371	-401.04083	308.18097	272.69284	-395.61026	262.12296	275.93576	-340.33646	312.76447	270.97794	-343.42139	264.95178	273.65927	-353.10641	99.43919	295.35800	-335.16791	108.58437	375.21585	-419.80630	63.24825	330.38528	-219.55675	51.14083	270.17813	-187.94597	67.55577	323.63702	-209.66055	54.83202	363.91214	-415.58832	1034.00781	464.58704	-249.72502	990.74683	546.19958	-388.23471	617.34674	572.16394	-390.40863	555.45367	562.39966	-329.11581	617.46906	597.69427	-320.90634	556.16901	594.44366	-326.26657	487.83115	581.82300	-328.31036	494.40952	466.67667	-421.78836	307.81299	595.78900	-418.62332	260.69189	598.32513	-362.40225	303.63116	613.95532	-368.68817	260.83612	614.51587	-375.94742	102.03277	602.17065	-354.28064	101.13026	523.51385	-441.87003	63.86597	556.95270	-234.02170	41.74152	542.26617	-210.60474	67.57862	589.06543	-270.90866	38.70716	646.44861
965	3.85600	-402.45325	1039.12036	355.54559	-217.89122	971.01550	339.21252	-353.30847	640.91687	274.96249	-352.83221	578.95123	279.39111	-277.89691	636.50494	283.38235	-287.13046	575.73260	287.55719	-333.56775	487.10785	288.95557	-349.22430	478.38086	400.65372	-401.03552	308.17322	272.68042	-395.65686	262.11325	275.95804	-340.32227	312.76447	270.96652	-343.43280	264.95166	273.65308	-353.11230	99.43019	295.36154	-335.17441	108.59142	375.23102	-419.79166	63.24196	330.39713	-219.56883	51.14500	270.17957	-187.95743	67.54710	323.63858	-209.67908	54.81696	363.92752	-415.65182	1034.04028	464.56137	-249.73833	990.74396	546.13684	-388.27359	617.36237	572.14972	-390.44870	555.45398	562.37646	-329.13153	617.46240	597.65948	-320.94107	556.17096	594.41107	-326.31689	487.82187	581.79749	-328.32578	494.43274	466.65347	-421.81332	307.81006	595.78485	-418.61731	260.70947	598.34412	-362.41522	303.64560	613.94617	-368.71780	260.83606	614.52100	-375.96054	102.02225	602.18542	-354.28000	101.13651	523.51001	-441.87799	63.88917	556.96399	-234.02051	41.74551	542.26874	-210.60213	67.57944	589.06427	-270.91971	38.70899	646.44537
966	3.86000	-402.51855	1039.13599	355.51236	-217.97641	971.00281	339.15820	-353.29404	640.88171	274.89801	-352.87686	578.92969	279.37009	-277.91534	636.51788	283.33664	-287.14932	575.72656	287.52069	-333.58249	487.10431	288.94077	-349.25610	478.37369	400.62848	-401.06833	308.18057	272.66089	-395.66537	262.10458	275.95020	-340.32904	312.75342	270.95889	-343.42902	264.94196	273.64359	-353.10635	99.43928	295.36856	-335.18127	108.57630	375.23608	-419.81277	63.24311	330.38293	-219.56961	51.14641	270.19498	-187.96490	67.55133	323.66037	-209.69731	54.80561	363.94946	-415.67798	1034.06506	464.54837	-249.79404	990.73322	546.09473	-388.32211	617.37225	572.13910	-390.48563	555.46356	562.40424	-329.18588	617.44257	597.63129	-320.45660	556.28741	594.59760	-326.34814	487.82248	581.78046	-328.35516	494.42288	466.64575	-421.84583	307.80948	595.78156	-418.66229	260.71146	598.33588	-362.46201	303.63797	613.94916	-368.73318	260.83194	614.51355	-375.99911	102.02403	602.18988	-354.25516	101.13920	523.51349	-441.90665	63.89393	556.96924	-234.01195	41.73894	542.29169	-210.61974	67.57323	589.07007	-270.94241	38.70248	646.44763
967	3.86400	-402.56247	1039.12830	355.49771	-218.01447	971.02222	339.10309	-353.39233	640.90314	274.90732	-352.96313	578.92279	279.36652	-277.93237	636.50928	283.33984	-287.16061	575.72516	287.47665	-333.59622	487.10712	288.90353	-349.30200	478.34430	400.60120	-401.07764	308.16101	272.66028	-395.69043	262.10098	275.95923	-340.33414	312.75653	270.93842	-343.39990	264.95264	273.64288	-353.10110	99.42293	295.37231	-335.20276	108.56757	375.23190	-419.83682	63.24324	330.39066	-219.55478	51.14423	270.20474	-187.94321	67.56261	323.66275	-209.71799	54.79991	363.96497	-415.71591	1034.06873	464.52008	-249.78120	990.71429	546.02686	-388.35385	617.34509	572.12415	-390.49728	555.44946	562.40393	-329.23157	617.42725	597.57074	-320.46622	556.26880	594.54059	-326.36533	487.81317	581.74304	-328.33566	494.44223	466.60474	-421.88235	307.81631	595.74823	-418.70718	260.70132	598.30566	-362.47101	303.62921	613.93420	-368.74741	260.82092	614.49731	-375.99591	102.01383	602.16644	-354.24753	101.14154	523.51233	-441.90103	63.87874	556.96765	-233.99580	41.75953	542.28229	-210.58513	67.59188	589.06158	-270.94290	38.69384	646.44855
968	3.86800	-402.59872	1039.14893	355.47812	-218.07449	971.01074	339.04382	-353.39328	640.88678	274.83841	-352.97021	578.91583	279.31763	-277.93268	636.52307	283.28726	-287.18927	575.72986	287.45016	-333.61179	487.08688	288.89145	-349.27887	478.33914	400.56638	-401.08704	308.14069	272.66223	-395.69992	262.08218	275.95331	-340.32513	312.73816	270.93439	-343.41180	264.93948	273.63129	-353.09085	99.42682	295.35928	-335.18692	108.57052	375.21353	-419.82452	63.24710	330.38669	-219.55455	51.13697	270.19852	-187.92389	67.57346	323.66943	-209.68372	54.79324	363.95361	-415.72247	1034.08240	464.50067	-249.76027	990.70679	545.94281	-388.37814	617.35828	572.08704	-390.54752	555.47394	562.38763	-329.20190	617.41772	597.54510	-320.46063	556.26489	594.50598	-326.36865	487.80197	581.72705	-328.33374	494.43704	466.57358	-421.89572	307.80835	595.72375	-418.69113	260.70505	598.29022	-362.46378	303.62845	613.90253	-368.74356	260.81445	614.48090	-375.96207	102.01640	602.16998	-354.24316	101.12460	523.49670	-441.88391	63.89128	556.96521	-233.97162	41.75954	542.27631	-210.56915	67.58536	589.07660	-270.91602	38.68986	646.43878
969	3.87200	-402.67584	1039.17078	355.45493	-218.14490	970.98834	338.96082	-353.45111	640.85815	274.80151	-352.99493	578.99164	279.10791	-278.01825	636.49902	283.24310	-287.21021	575.70654	287.43457	-333.63562	487.06592	288.86279	-349.28156	478.32999	400.56195	-401.09009	308.12573	272.65482	-395.68625	262.05719	275.92435	-340.36011	312.70709	270.93704	-343.41129	264.93271	273.63846	-353.08603	99.39821	295.37167	-335.15469	108.56864	375.20129	-419.80170	63.24112	330.39261	-219.53102	51.13795	270.19748	-187.92897	67.55289	323.65320	-209.65434	54.80350	363.94217	-415.74313	1034.08777	464.49838	-249.74162	990.67493	545.88013	-388.51480	617.34381	571.84528	-390.38748	555.78455	563.26837	-329.20532	617.39575	597.48346	-320.97928	556.11969	594.25360	-326.37741	487.79041	581.69318	-328.35620	494.39462	466.56284	-421.87466	307.80594	595.71033	-418.66858	260.68146	598.28021	-362.44824	303.59195	613.88776	-368.72507	260.80396	614.46509	-375.93176	101.99352	602.16034	-354.23090	101.09256	523.52533	-441.87924	63.86323	556.95929	-233.95630	41.74257	542.28314	-210.56366	67.55679	589.07507	-270.89853	38.67903	646.44623
970	3.87600	-402.73065	1039.15845	355.45309	-218.20572	970.98053	338.88599	-353.48618	640.84821	274.74463	-353.08395	578.95325	279.10541	-278.05539	636.48090	283.17505	-287.25555	575.68152	287.37274	-333.66000	487.04950	288.84418	-349.27335	478.31116	400.52737	-401.08267	308.11203	272.61752	-395.69366	262.05194	275.92239	-340.33911	312.70081	270.91016	-343.42233	264.91284	273.60687	-353.07059	99.39947	295.36322	-335.16174	108.55666	375.21399	-419.82028	63.25474	330.38895	-219.54079	51.13634	270.17978	-187.93762	67.55754	323.63049	-209.65091	54.80690	363.92651	-415.74307	1034.08350	464.45706	-249.75949	990.64948	545.79150	-388.38150	617.36774	572.01740	-390.40717	555.80725	563.27161	-329.18579	617.39722	597.45490	-320.47461	556.24982	594.42859	-326.38757	487.80316	581.64191	-328.38379	494.38123	466.50443	-421.90536	307.81000	595.66376	-418.70099	260.69193	598.25482	-362.46075	303.60266	613.85651	-368.73880	260.79675	614.44159	-375.94504	101.98829	602.16632	-354.23572	101.09440	523.49615	-441.88315	63.91480	556.90216	-233.96353	41.71396	542.27051	-210.56618	67.54352	589.07257	-270.88489	38.67977	646.42963
